<svg xmlns="http://www.w3.org/2000/svg" viewBox="0 0 119 119"><defs><style>.cls-1,.cls-2{fill:#fff;}.cls-2{stroke:#94c83d;stroke-miterlimit:10;stroke-width:8px;}.cls-3{fill:#94c83d;}</style></defs><title>Asset 3</title><g id="Layer_2" data-name="Layer 2"><g id="Layer_1-2" data-name="Layer 1"><rect class="cls-1" width="119" height="119"/><path class="cls-2" d="M66.63,92.74C43.22,98.58,24,82.82,20.85,63.15c-2.78-17.64,9.27-35.56,27.23-40.1,17-4.28,35.41,5.2,41.45,19.85,3.61,8.79,3.45,19.51,2.36,23.36"/><path class="cls-3" d="M88.14,55.35c2.38,7.28,8.56-1.5,14.36,4.23,9.42,9.28-19.72,29.79-21.27,27.67-.1-.14-.16-.41-.06-.51,6-5.75-7.72-20.71-5.94-28.18C76.9,51.51,87,51.74,88.14,55.35Z"/><path class="cls-1" d="M89,76.59c-.93,2,4.21-5.46,3-12.08-.84-4.74-3.73-4.59-4.29-4.28C84.3,62.18,93.64,66.46,89,76.59Z"/></g></g></svg>