<svg id="Layer_1" data-name="Layer 1" xmlns="http://www.w3.org/2000/svg" viewBox="0 0 406 105"><defs><style>.cls-1{fill:#0070c2;}</style></defs><title>logo clipped</title><path class="cls-1" d="M2.92,74.43l2.56-3.22c4.06,3.4,8.43,6.08,15.26,6.08,7.56,0,11.48-4.42,11.48-9.48,0-6-6.22-8.66-11.76-10.66-7.24-2.57-15.3-5.52-15.3-13.72,0-6.92,5.48-12.78,15.48-12.78a22.52,22.52,0,0,1,13.72,5L32,38.81c-3.24-2.42-6.65-4.38-11.46-4.38-7.49,0-10.88,4.31-10.88,8.74,0,5.48,5.66,7.56,11.38,9.72,7.44,2.83,15.68,5.28,15.68,14.64,0,7.24-5.78,13.54-16.18,13.54A27.44,27.44,0,0,1,2.92,74.43Z"/><path class="cls-1" d="M49.4,31.85h3.74l.48,7.44h.22c4.9-4.88,9.9-8.64,16.52-8.64,9.92,0,14.52,6,14.52,18.42v30.8H80.46V49.65c0-10.18-3.22-15-10.94-15-5.72,0-9.86,3-15.7,9V79.87H49.4Z"/><path class="cls-1" d="M99.16,67.92c0-10.67,9.62-15.75,31-18.11.14-7.38-1.88-15.28-11.32-15.28-6.48,0-12.08,3.2-15.3,5.64l-2-3.28c3.4-2.4,10.06-6.24,17.86-6.24,11.38,0,15.22,8.26,15.22,18.54V79.87h-3.74l-.48-6.24h-.22c-4.9,4-10.74,7.44-17,7.44C105.48,81.07,99.16,76.93,99.16,67.92Zm31,1.59V53.17c-19.72,2.28-26.46,6.86-26.46,14.52,0,6.89,4.66,9.54,10.18,9.54S124.2,74.57,130.14,69.51Z"/><path class="cls-1" d="M151.7,31.85h3.74l.48,6h.22c4.69-3.76,10.4-7.24,16.3-7.24,12.88,0,19.22,9.64,19.22,24.5,0,16.3-9.84,25.92-21.16,25.92-4.56,0-9.44-2.16-14.44-5.9l.06,8.86v17.59H151.7ZM187,55.17c0-11.8-4.2-20.6-15.28-20.6-4.76,0-9.82,2.8-15.62,7.92V71c5.42,4.5,10.5,6.18,14.14,6.18C180,77.15,187,68.19,187,55.17Z"/><path class="cls-1" d="M202.06,56c0-16.06,10.26-25.3,21.94-25.3,6.54,0,10.8,2.9,14.06,5.92l-2.6,3.08c-3.1-2.88-6.68-5.1-11.36-5.1-9.82,0-17.4,8.76-17.4,21.4S213.6,77.17,224,77.17a19.12,19.12,0,0,0,12.86-5.54l2.28,3.1c-4.1,3.68-9.24,6.34-15.34,6.34C211.44,81.07,202.06,71.83,202.06,56Z"/><path class="cls-1" d="M245,100.74l1-3.82a12,12,0,0,0,3.92.78c5.86,0,9.86-5.42,12.3-12.74l1.32-4.19L243.87,31.85h4.78L260.23,62c1.58,4.06,3.48,9.2,5.22,13.48h.4c1.54-4.26,3.08-9.4,4.46-13.48l10.23-30.18h4.51l-19,54.07c-2.68,8-7.54,15.82-16.16,15.82A12.29,12.29,0,0,1,245,100.74Z"/><path class="cls-1" d="M291.35,56c0-16.06,10.26-25.3,21.94-25.3,6.54,0,10.8,2.9,14.07,5.92l-2.61,3.08c-3.09-2.88-6.67-5.1-11.36-5.1-9.82,0-17.4,8.76-17.4,21.4s6.9,21.22,17.34,21.22a19.15,19.15,0,0,0,12.87-5.54l2.28,3.1c-4.1,3.68-9.25,6.34-15.35,6.34C300.73,81.07,291.35,71.83,291.35,56Z"/><path class="cls-1" d="M340.29,73.43V7.93h4.42V74c0,2.14.88,3.14,2.08,3.14a7.55,7.55,0,0,0,1.8-.2l.74,3.6a10,10,0,0,1-3.18.5C342.29,81.07,340.29,78.69,340.29,73.43Z"/><path class="cls-1" d="M360,56c0-15.66,10.18-25.3,20.94-25.3,11.38,0,18.39,8.1,18.39,22.22a20.76,20.76,0,0,1-.25,3.6H364.49c.16,12.12,7.26,20.78,18.08,20.78A21.61,21.61,0,0,0,395.47,73l1.82,3.36c-3.78,2.36-8.1,4.72-15.14,4.72C369.89,81.07,360,71.65,360,56Zm35.17-3.12c0-12.26-5.57-18.36-14.19-18.36-8.12,0-15.46,6.88-16.46,18.36Z"/></svg>