<svg id="Layer_1" data-name="Layer 1" xmlns="http://www.w3.org/2000/svg" viewBox="0 0 268.33 235.04"><defs><style>.cls-1{fill:#434343;}.cls-2{fill:none;stroke:#94c83d;stroke-miterlimit:10;stroke-width:14px;}.cls-3{fill:#94c83d;}.cls-4{fill:#fff;}</style></defs><title>camButIcon artboard</title><circle class="cls-1" cx="121.04" cy="122.05" r="110.99"/><path class="cls-2" d="M149,222.45C78,240.16,19.57,192.37,10.17,132.76,1.73,79.27,38.28,25,92.73,11.19,144.09-1.79,200.07,27,218.36,71.38c10.95,26.62,10.46,59.13,7.17,70.82"/><path class="cls-3" d="M217.16,106.12c7.22,22.07,25.94-4.54,43.54,12.8,28.56,28.14-59.79,90.33-64.47,83.88-.31-.42-.5-1.23-.19-1.52,18.29-17.44-23.41-62.79-18-85.45C183.09,94.46,213.58,95.18,217.16,106.12Z"/><path class="cls-4" d="M219.88,170.5c-2.8,6.15,12.78-16.55,9.24-36.61-2.54-14.38-11.28-13.93-13-13C205.51,126.81,233.84,139.79,219.88,170.5Z"/></svg>