<svg id="Layer_1" data-name="Layer 1" xmlns="http://www.w3.org/2000/svg" viewBox="0 0 119 119"><defs><style>.cls-1{fill:#fff;}.cls-2{fill:none;stroke:#94c83d;stroke-miterlimit:10;stroke-width:4px;}.cls-3{fill:#94c83d;}</style></defs><title>cropped icon</title><rect class="cls-1" width="119" height="119"/><path class="cls-2" d="M69.63,92.74C46.22,98.58,27,82.82,23.85,63.15c-2.78-17.64,9.27-35.56,27.23-40.1,17-4.28,35.41,5.2,41.45,19.85,3.61,8.79,3.45,19.51,2.36,23.36"/><path class="cls-3" d="M92.14,55.35c2.38,7.28,8.56-1.5,14.36,4.23,9.42,9.28-19.72,29.79-21.27,27.67-.1-.14-.16-.41-.06-.51,6-5.75-7.72-20.71-5.94-28.18C80.9,51.51,91,51.74,92.14,55.35Z"/><path class="cls-1" d="M93,76.59c-.93,2,4.21-5.46,3-12.08-.84-4.74-3.73-4.59-4.29-4.28C88.3,62.18,97.64,66.46,93,76.59Z"/></svg>