<svg id="Layer_1" data-name="Layer 1" xmlns="http://www.w3.org/2000/svg" viewBox="0 0 119 119"><defs><style>.cls-1,.cls-2{fill:#fff;}.cls-2{stroke:#94c83d;stroke-miterlimit:10;stroke-width:13px;}.cls-3{fill:#94c83d;}</style></defs><title>cropped icon</title><rect class="cls-1" width="119" height="119"/><path class="cls-2" d="M70.63,104.06c-28.3,7.06-51.6-12-55.35-35.78C11.91,47,26.49,25.28,48.21,19.8c20.48-5.18,42.81,6.28,50.1,24,4.37,10.62,4.18,23.59,2.86,28.25"/><path class="cls-3" d="M96.64,58.86C99.52,67.66,107,57,114,64c11.4,11.22-23.84,36-25.71,33.46-.12-.17-.2-.49-.07-.61,7.29-7-9.34-25-7.2-34.08C83.05,54.2,95.21,54.49,96.64,58.86Z"/><path class="cls-1" d="M97.72,84.53c-1.11,2.45,5.1-6.6,3.69-14.6-1-5.74-4.5-5.56-5.18-5.18C92,67.1,103.29,72.28,97.72,84.53Z"/></svg>