<svg xmlns="http://www.w3.org/2000/svg" viewBox="0 0 396.36 93.81"><defs><style>.cls-1{fill:#0070c2;}</style></defs><title>Asset 1</title><g id="Layer_2" data-name="Layer 2"><g id="Layer_1-2" data-name="Layer 1"><path class="cls-1" d="M3.24,77.56,5.8,74.34c4.06,3.4,8.43,6.08,15.26,6.08,7.56,0,11.48-4.42,11.48-9.48,0-6-6.22-8.66-11.76-10.66-7.24-2.57-15.3-5.52-15.3-13.72C5.48,39.64,11,33.78,21,33.78a22.52,22.52,0,0,1,13.72,5L32.3,41.94c-3.24-2.42-6.65-4.38-11.46-4.38C13.35,37.56,10,41.87,10,46.3c0,5.48,5.66,7.56,11.38,9.72C28.78,58.85,37,61.3,37,70.66,37,77.9,31.24,84.2,20.84,84.2A27.44,27.44,0,0,1,3.24,77.56Z" transform="translate(-3.24 -11.06)"/><path class="cls-1" d="M49.72,35h3.74l.48,7.44h.22c4.9-4.88,9.9-8.64,16.52-8.64,9.92,0,14.52,6,14.52,18.42V83H80.78V52.78c0-10.18-3.22-15-10.94-15-5.72,0-9.86,3-15.7,9V83H49.72Z" transform="translate(-3.24 -11.06)"/><path class="cls-1" d="M99.48,71.05c0-10.67,9.62-15.75,31-18.11.14-7.38-1.88-15.28-11.32-15.28-6.48,0-12.08,3.2-15.3,5.64l-2-3.28c3.4-2.4,10.06-6.24,17.86-6.24,11.38,0,15.22,8.26,15.22,18.54V83h-3.74l-.48-6.24h-.22c-4.9,4-10.74,7.44-17,7.44C105.8,84.2,99.48,80.06,99.48,71.05Zm31,1.59V56.3C110.74,58.58,104,63.16,104,70.82c0,6.89,4.66,9.54,10.18,9.54S124.52,77.7,130.46,72.64Z" transform="translate(-3.24 -11.06)"/><path class="cls-1" d="M152,35h3.74l.48,6h.22c4.69-3.76,10.4-7.24,16.3-7.24,12.88,0,19.22,9.64,19.22,24.5,0,16.3-9.84,25.92-21.16,25.92-4.56,0-9.44-2.16-14.44-5.9l.06,8.86v17.58H152ZM187.34,58.3c0-11.8-4.2-20.6-15.28-20.6-4.76,0-9.82,2.8-15.62,7.92V74.1c5.42,4.5,10.5,6.18,14.14,6.18C180.34,80.28,187.34,71.32,187.34,58.3Z" transform="translate(-3.24 -11.06)"/><path class="cls-1" d="M202.38,59.08c0-16.06,10.26-25.3,21.94-25.3,6.54,0,10.8,2.9,14.06,5.92l-2.6,3.08c-3.1-2.88-6.68-5.1-11.36-5.1-9.82,0-17.4,8.76-17.4,21.4s6.9,21.22,17.34,21.22a19.12,19.12,0,0,0,12.86-5.54l2.28,3.1c-4.1,3.68-9.24,6.34-15.34,6.34C211.76,84.2,202.38,75,202.38,59.08Z" transform="translate(-3.24 -11.06)"/><path class="cls-1" d="M245.36,103.86l1-3.82a12,12,0,0,0,3.92.78c5.86,0,9.86-5.42,12.3-12.74l1.32-4.18L244.2,35H249l11.58,30.18c1.58,4.06,3.48,9.2,5.22,13.48h.4c1.54-4.26,3.08-9.4,4.46-13.48L280.86,35h4.52L266.42,89c-2.68,8-7.54,15.82-16.16,15.82A12.29,12.29,0,0,1,245.36,103.86Z" transform="translate(-3.24 -11.06)"/><path class="cls-1" d="M291.68,59.08c0-16.06,10.26-25.3,21.94-25.3,6.54,0,10.8,2.9,14.06,5.92l-2.6,3.08c-3.1-2.88-6.68-5.1-11.36-5.1-9.82,0-17.4,8.76-17.4,21.4s6.9,21.22,17.34,21.22a19.12,19.12,0,0,0,12.86-5.54l2.28,3.1c-4.1,3.68-9.24,6.34-15.34,6.34C301.06,84.2,291.68,75,291.68,59.08Z" transform="translate(-3.24 -11.06)"/><path class="cls-1" d="M340.62,76.56V11.06H345v66.1c0,2.14.88,3.14,2.08,3.14a7.55,7.55,0,0,0,1.8-.2l.74,3.6a10,10,0,0,1-3.18.5C342.62,84.2,340.62,81.82,340.62,76.56Z" transform="translate(-3.24 -11.06)"/><path class="cls-1" d="M360.28,59.08c0-15.66,10.18-25.3,20.94-25.3,11.38,0,18.38,8.1,18.38,22.22a20.76,20.76,0,0,1-.25,3.6H364.81c.17,12.12,7.27,20.78,18.09,20.78a21.63,21.63,0,0,0,12.9-4.26l1.82,3.36c-3.78,2.36-8.1,4.72-15.14,4.72C370.22,84.2,360.28,74.78,360.28,59.08ZM395.44,56c0-12.26-5.56-18.36-14.18-18.36-8.12,0-15.46,6.88-16.46,18.36Z" transform="translate(-3.24 -11.06)"/></g></g></svg>